<mxfile host="app.diagrams.net" agent="Mozilla/5.0 (Windows NT 10.0; Win64; x64) AppleWebKit/537.36 (KHTML, like Gecko) Chrome/128.0.0.0 Safari/537.36 OPR/114.0.0.0" version="24.8.1">
  <diagram name="Сторінка-1" id="UvdMJV9_GIe6cro4G2kr">
    <mxGraphModel dx="2604" dy="1342" grid="1" gridSize="10" guides="1" tooltips="1" connect="1" arrows="1" fold="1" page="1" pageScale="1" pageWidth="827" pageHeight="1169" math="0" shadow="0">
      <root>
        <mxCell id="0" />
        <mxCell id="1" parent="0" />
        <mxCell id="F0rOSps_3qiA4jYZ8Of5-2" value="" style="rounded=0;whiteSpace=wrap;html=1;rotation=90;" parent="1" vertex="1">
          <mxGeometry x="55.82" y="409.18" width="942.87" height="567" as="geometry" />
        </mxCell>
        <mxCell id="F0rOSps_3qiA4jYZ8Of5-3" value="&lt;font size=&quot;1&quot; style=&quot;&quot;&gt;&lt;b style=&quot;font-size: 18px;&quot;&gt;FTP-server&lt;/b&gt;&lt;/font&gt;" style="text;html=1;align=center;verticalAlign=middle;whiteSpace=wrap;rounded=0;" parent="1" vertex="1">
          <mxGeometry x="446.51" y="220" width="161.5" height="40" as="geometry" />
        </mxCell>
        <mxCell id="F0rOSps_3qiA4jYZ8Of5-4" value="&lt;font style=&quot;font-size: 16px;&quot;&gt;&lt;b&gt;Адміністратор&lt;/b&gt;&lt;/font&gt;&lt;div style=&quot;font-size: 16px;&quot;&gt;&lt;span style=&quot;&quot;&gt;&lt;br&gt;&lt;/span&gt;&lt;/div&gt;" style="shape=umlActor;verticalLabelPosition=bottom;verticalAlign=top;html=1;outlineConnect=0;fillColor=#f0f0f0;" parent="1" vertex="1">
          <mxGeometry x="70.5" y="508" width="60.75" height="122" as="geometry" />
        </mxCell>
        <mxCell id="F0rOSps_3qiA4jYZ8Of5-5" value="&lt;div style=&quot;font-size: 16px;&quot;&gt;&lt;span style=&quot;&quot;&gt;&lt;b&gt;Користувач&lt;/b&gt;&lt;/span&gt;&lt;/div&gt;&lt;div style=&quot;font-size: 16px;&quot;&gt;&lt;span style=&quot;&quot;&gt;&lt;br&gt;&lt;/span&gt;&lt;/div&gt;" style="shape=umlActor;verticalLabelPosition=bottom;verticalAlign=top;html=1;outlineConnect=0;fillColor=#f0f0f0;" parent="1" vertex="1">
          <mxGeometry x="70.5" y="848" width="60.75" height="122" as="geometry" />
        </mxCell>
        <mxCell id="F0rOSps_3qiA4jYZ8Of5-6" value="&lt;font style=&quot;font-size: 16px;&quot;&gt;&lt;b&gt;Авторизація&lt;/b&gt;&lt;/font&gt;" style="ellipse;whiteSpace=wrap;html=1;fillColor=#f0f0f0;" parent="1" vertex="1">
          <mxGeometry x="285" y="720" width="180" height="80" as="geometry" />
        </mxCell>
        <mxCell id="F0rOSps_3qiA4jYZ8Of5-7" value="&lt;font style=&quot;font-size: 16px;&quot;&gt;&lt;b&gt;Створення користувачів&lt;/b&gt;&lt;/font&gt;" style="ellipse;whiteSpace=wrap;html=1;fillColor=#f0f0f0;" parent="1" vertex="1">
          <mxGeometry x="285" y="260" width="180" height="80" as="geometry" />
        </mxCell>
        <mxCell id="F0rOSps_3qiA4jYZ8Of5-8" value="&lt;div style=&quot;&quot;&gt;&lt;span style=&quot;background-color: initial;&quot;&gt;&lt;font style=&quot;font-size: 16px;&quot;&gt;&lt;b&gt;Налаштування прав доступу&lt;/b&gt;&lt;/font&gt;&lt;/span&gt;&lt;/div&gt;" style="ellipse;whiteSpace=wrap;html=1;align=center;fillColor=#f0f0f0;" parent="1" vertex="1">
          <mxGeometry x="270" y="350" width="210" height="80" as="geometry" />
        </mxCell>
        <mxCell id="F0rOSps_3qiA4jYZ8Of5-9" value="&lt;font style=&quot;font-size: 16px;&quot;&gt;&lt;b&gt;Обмеження кількості підключень&lt;/b&gt;&lt;/font&gt;" style="ellipse;whiteSpace=wrap;html=1;fillColor=#f0f0f0;" parent="1" vertex="1">
          <mxGeometry x="267.5" y="440" width="210" height="80" as="geometry" />
        </mxCell>
        <mxCell id="F0rOSps_3qiA4jYZ8Of5-10" value="&lt;font style=&quot;font-size: 16px;&quot;&gt;&lt;b&gt;Обмеження швидкості передачі даних&lt;/b&gt;&lt;/font&gt;" style="ellipse;whiteSpace=wrap;html=1;fillColor=#f0f0f0;" parent="1" vertex="1">
          <mxGeometry x="262.5" y="529" width="215" height="80" as="geometry" />
        </mxCell>
        <mxCell id="F0rOSps_3qiA4jYZ8Of5-11" value="&lt;font style=&quot;font-size: 16px;&quot;&gt;&lt;b&gt;Ведення статистики з&#39;єднань&lt;/b&gt;&lt;/font&gt;" style="ellipse;whiteSpace=wrap;html=1;fillColor=#f0f0f0;" parent="1" vertex="1">
          <mxGeometry x="270" y="620" width="210" height="80" as="geometry" />
        </mxCell>
        <mxCell id="F0rOSps_3qiA4jYZ8Of5-12" value="&lt;font style=&quot;font-size: 16px;&quot;&gt;&lt;b&gt;Створення папок&lt;/b&gt;&lt;/font&gt;" style="ellipse;whiteSpace=wrap;html=1;fillColor=#f0f0f0;" parent="1" vertex="1">
          <mxGeometry x="285" y="810" width="180" height="70" as="geometry" />
        </mxCell>
        <mxCell id="F0rOSps_3qiA4jYZ8Of5-13" value="&lt;font style=&quot;font-size: 16px;&quot;&gt;&lt;b&gt;Завантаження файлів, папок&lt;/b&gt;&lt;/font&gt;" style="ellipse;whiteSpace=wrap;html=1;fillColor=#f0f0f0;" parent="1" vertex="1">
          <mxGeometry x="285" y="890" width="180" height="80" as="geometry" />
        </mxCell>
        <mxCell id="F0rOSps_3qiA4jYZ8Of5-14" value="&lt;font style=&quot;font-size: 16px;&quot;&gt;&lt;b&gt;Вивантаження файлів, папок&lt;/b&gt;&lt;/font&gt;" style="ellipse;whiteSpace=wrap;html=1;fillColor=#f0f0f0;" parent="1" vertex="1">
          <mxGeometry x="285" y="980" width="180" height="80" as="geometry" />
        </mxCell>
        <mxCell id="F0rOSps_3qiA4jYZ8Of5-15" value="&lt;font style=&quot;font-size: 16px;&quot;&gt;&lt;b&gt;Видалення файлів, п&lt;/b&gt;&lt;/font&gt;&lt;b style=&quot;font-size: 16px; background-color: initial;&quot;&gt;апок&lt;/b&gt;" style="ellipse;whiteSpace=wrap;html=1;fillColor=#f0f0f0;" parent="1" vertex="1">
          <mxGeometry x="285" y="1070" width="180" height="80" as="geometry" />
        </mxCell>
        <mxCell id="F0rOSps_3qiA4jYZ8Of5-18" value="&lt;font style=&quot;font-size: 16px;&quot;&gt;&lt;b&gt;Доступ до папок&lt;/b&gt;&lt;/font&gt;" style="ellipse;whiteSpace=wrap;html=1;fillColor=#f0f0f0;" parent="1" vertex="1">
          <mxGeometry x="608.01" y="350" width="180" height="80" as="geometry" />
        </mxCell>
        <mxCell id="F0rOSps_3qiA4jYZ8Of5-19" value="&lt;font style=&quot;font-size: 16px;&quot;&gt;&lt;b&gt;Помилка авторизації&lt;/b&gt;&lt;/font&gt;" style="ellipse;whiteSpace=wrap;html=1;fillColor=#f0f0f0;" parent="1" vertex="1">
          <mxGeometry x="608.01" y="720" width="180" height="80" as="geometry" />
        </mxCell>
        <mxCell id="F0rOSps_3qiA4jYZ8Of5-20" value="" style="endArrow=classic;html=1;rounded=0;exitX=0;exitY=0.5;exitDx=0;exitDy=0;entryX=1;entryY=0.5;entryDx=0;entryDy=0;strokeColor=default;dashed=1;dashPattern=8 8;" parent="1" source="F0rOSps_3qiA4jYZ8Of5-19" target="F0rOSps_3qiA4jYZ8Of5-6" edge="1">
          <mxGeometry width="50" height="50" relative="1" as="geometry">
            <mxPoint x="550.5784162040338" y="271.245" as="sourcePoint" />
            <mxPoint x="540" y="350" as="targetPoint" />
          </mxGeometry>
        </mxCell>
        <mxCell id="F0rOSps_3qiA4jYZ8Of5-21" value="" style="endArrow=classic;html=1;rounded=0;exitX=0;exitY=0.5;exitDx=0;exitDy=0;strokeColor=default;dashed=1;dashPattern=8 8;" parent="1" edge="1">
          <mxGeometry width="50" height="50" relative="1" as="geometry">
            <mxPoint x="608" y="389.58000000000004" as="sourcePoint" />
            <mxPoint x="480" y="389.58000000000004" as="targetPoint" />
          </mxGeometry>
        </mxCell>
        <mxCell id="F0rOSps_3qiA4jYZ8Of5-23" value="&lt;font style=&quot;font-size: 14px;&quot;&gt;&amp;lt;&amp;lt;extend&amp;gt;&amp;gt;&lt;/font&gt;" style="text;html=1;align=center;verticalAlign=middle;whiteSpace=wrap;rounded=0;" parent="1" vertex="1">
          <mxGeometry x="510" y="730" width="60" height="30" as="geometry" />
        </mxCell>
        <mxCell id="F0rOSps_3qiA4jYZ8Of5-24" value="&lt;font style=&quot;font-size: 14px;&quot;&gt;&amp;lt;&amp;lt;include&lt;/font&gt;&lt;span style=&quot;background-color: initial; font-size: 14px;&quot;&gt;&amp;gt;&amp;gt;&lt;/span&gt;" style="text;html=1;align=center;verticalAlign=middle;whiteSpace=wrap;rounded=0;" parent="1" vertex="1">
          <mxGeometry x="510" y="360" width="60" height="30" as="geometry" />
        </mxCell>
        <mxCell id="F0rOSps_3qiA4jYZ8Of5-27" value="" style="endArrow=classic;html=1;rounded=0;entryX=0;entryY=0.5;entryDx=0;entryDy=0;" parent="1" target="F0rOSps_3qiA4jYZ8Of5-7" edge="1">
          <mxGeometry width="50" height="50" relative="1" as="geometry">
            <mxPoint x="130" y="520" as="sourcePoint" />
            <mxPoint x="120" y="640" as="targetPoint" />
          </mxGeometry>
        </mxCell>
        <mxCell id="F0rOSps_3qiA4jYZ8Of5-28" value="" style="endArrow=classic;html=1;rounded=0;entryX=0;entryY=0.5;entryDx=0;entryDy=0;targetPerimeterSpacing=0;sourcePerimeterSpacing=0;" parent="1" source="F0rOSps_3qiA4jYZ8Of5-4" target="F0rOSps_3qiA4jYZ8Of5-8" edge="1">
          <mxGeometry width="50" height="50" relative="1" as="geometry">
            <mxPoint x="140" y="481" as="sourcePoint" />
            <mxPoint x="170" y="640" as="targetPoint" />
          </mxGeometry>
        </mxCell>
        <mxCell id="F0rOSps_3qiA4jYZ8Of5-29" value="" style="endArrow=classic;html=1;rounded=0;entryX=0;entryY=0.5;entryDx=0;entryDy=0;" parent="1" source="F0rOSps_3qiA4jYZ8Of5-4" target="F0rOSps_3qiA4jYZ8Of5-9" edge="1">
          <mxGeometry width="50" height="50" relative="1" as="geometry">
            <mxPoint x="80" y="710" as="sourcePoint" />
            <mxPoint x="130" y="660" as="targetPoint" />
          </mxGeometry>
        </mxCell>
        <mxCell id="F0rOSps_3qiA4jYZ8Of5-30" value="" style="endArrow=classic;html=1;rounded=0;entryX=0;entryY=0.5;entryDx=0;entryDy=0;" parent="1" source="F0rOSps_3qiA4jYZ8Of5-4" target="F0rOSps_3qiA4jYZ8Of5-10" edge="1">
          <mxGeometry width="50" height="50" relative="1" as="geometry">
            <mxPoint x="60" y="710" as="sourcePoint" />
            <mxPoint x="110" y="660" as="targetPoint" />
          </mxGeometry>
        </mxCell>
        <mxCell id="F0rOSps_3qiA4jYZ8Of5-31" value="" style="endArrow=classic;html=1;rounded=0;entryX=0;entryY=0.5;entryDx=0;entryDy=0;" parent="1" source="F0rOSps_3qiA4jYZ8Of5-4" target="F0rOSps_3qiA4jYZ8Of5-11" edge="1">
          <mxGeometry width="50" height="50" relative="1" as="geometry">
            <mxPoint x="160" y="650" as="sourcePoint" />
            <mxPoint x="140" y="710" as="targetPoint" />
          </mxGeometry>
        </mxCell>
        <mxCell id="F0rOSps_3qiA4jYZ8Of5-32" value="" style="endArrow=block;html=1;rounded=0;strokeColor=default;endFill=0;strokeWidth=1;endSize=8;" parent="1" edge="1">
          <mxGeometry width="50" height="50" relative="1" as="geometry">
            <mxPoint x="100.44" y="660" as="sourcePoint" />
            <mxPoint x="100.44" y="840" as="targetPoint" />
          </mxGeometry>
        </mxCell>
        <mxCell id="F0rOSps_3qiA4jYZ8Of5-33" value="" style="endArrow=classic;html=1;rounded=0;entryX=0;entryY=0.5;entryDx=0;entryDy=0;" parent="1" source="F0rOSps_3qiA4jYZ8Of5-5" target="F0rOSps_3qiA4jYZ8Of5-12" edge="1">
          <mxGeometry width="50" height="50" relative="1" as="geometry">
            <mxPoint x="-100" y="970" as="sourcePoint" />
            <mxPoint x="-50" y="920" as="targetPoint" />
          </mxGeometry>
        </mxCell>
        <mxCell id="F0rOSps_3qiA4jYZ8Of5-34" value="" style="endArrow=classic;html=1;rounded=0;entryX=0;entryY=0.5;entryDx=0;entryDy=0;" parent="1" target="F0rOSps_3qiA4jYZ8Of5-13" edge="1">
          <mxGeometry width="50" height="50" relative="1" as="geometry">
            <mxPoint x="130" y="910" as="sourcePoint" />
            <mxPoint x="130" y="1050" as="targetPoint" />
          </mxGeometry>
        </mxCell>
        <mxCell id="F0rOSps_3qiA4jYZ8Of5-35" value="" style="endArrow=classic;html=1;rounded=0;entryX=0;entryY=0.5;entryDx=0;entryDy=0;" parent="1" source="F0rOSps_3qiA4jYZ8Of5-5" target="F0rOSps_3qiA4jYZ8Of5-14" edge="1">
          <mxGeometry width="50" height="50" relative="1" as="geometry">
            <mxPoint x="90" y="1110" as="sourcePoint" />
            <mxPoint x="140" y="1060" as="targetPoint" />
          </mxGeometry>
        </mxCell>
        <mxCell id="F0rOSps_3qiA4jYZ8Of5-36" value="" style="endArrow=classic;html=1;rounded=0;entryX=0;entryY=0.5;entryDx=0;entryDy=0;" parent="1" source="F0rOSps_3qiA4jYZ8Of5-5" target="F0rOSps_3qiA4jYZ8Of5-15" edge="1">
          <mxGeometry width="50" height="50" relative="1" as="geometry">
            <mxPoint x="80" y="1090" as="sourcePoint" />
            <mxPoint x="130" y="1040" as="targetPoint" />
          </mxGeometry>
        </mxCell>
        <mxCell id="nnPJU36ubpt1Rap7rljA-2" value="" style="endArrow=classic;html=1;rounded=0;entryX=0;entryY=0.5;entryDx=0;entryDy=0;" edge="1" parent="1" target="F0rOSps_3qiA4jYZ8Of5-6">
          <mxGeometry width="50" height="50" relative="1" as="geometry">
            <mxPoint x="140" y="850" as="sourcePoint" />
            <mxPoint x="200" y="780" as="targetPoint" />
          </mxGeometry>
        </mxCell>
      </root>
    </mxGraphModel>
  </diagram>
</mxfile>
